<?xml version="1.0" encoding="utf-8"?>
<!-- Generator: Adobe Illustrator 22.0.1, SVG Export Plug-In . SVG Version: 6.00 Build 0)  -->
<svg version="1.1" id="Layer_1" xmlns="http://www.w3.org/2000/svg" xmlns:xlink="http://www.w3.org/1999/xlink" x="0px" y="0px"
	 viewBox="0 0 288 53.8" style="enable-background:new 0 0 288 53.8;" xml:space="preserve">
<style type="text/css">
	.st0{fill:#FFFFFF;}
</style>
<g>
	<path class="st0" d="M23.8,39.5c0,6.4-4.2,8.8-10.5,8.8h-0.1c-6.3,0-10.5-2.3-10.5-8.8v-25c0-6.2,4.2-8.8,10.5-8.8h0.1
		c6.3,0,10.5,2.6,10.5,8.8v7.6h-6.9v-6.5c0-2.9-1.4-3.8-3.6-3.8s-3.6,0.9-3.6,3.8v22.8c0,2.9,1.4,3.8,3.6,3.8s3.6-0.9,3.6-3.8v-7.5
		h6.9V39.5z"/>
	<path class="st0" d="M45.9,47.8l-5.3-16.6h-3.4v16.6h-6.9V6.2H41c6.3,0,10.5,2.5,10.5,8.8v7.4c0,4-1.7,6.5-4.5,7.7l5.9,17.6
		L45.9,47.8L45.9,47.8z M37.2,25.3h3.6c2.3,0,3.8-0.8,3.8-3.8v-5.4c0-3-1.5-3.8-3.8-3.8h-3.6V25.3z"/>
	<path class="st0" d="M58.1,47.8V6.2h18.2v6.1H65v11.4h9.5v6.1H65v12h11.5v6.1H58.1z"/>
	<path class="st0" d="M96.6,38.5H89l-1.5,9.3h-6.7l7.7-41.6h8.7l7.8,41.6h-7L96.6,38.5z M95.7,32.8l-2.9-18.5l-2.9,18.5H95.7z"/>
	<path class="st0" d="M125.4,12.3h-7v35.5h-6.9V12.3h-7V6.2h20.8V12.3z"/>
	<path class="st0" d="M131.2,47.8V6.2h6.9v41.6L131.2,47.8L131.2,47.8z"/>
	<path class="st0" d="M159.2,47.8h-7.6l-7.8-41.6h7l4.8,30.8l4.8-30.8h6.7L159.2,47.8z"/>
	<path class="st0" d="M171.5,47.8V6.2h18.2v6.1h-11.4v11.4h9.5v6.1h-9.5v12h11.5v6.1H171.5z"/>
	<path class="st0" d="M219,47.8h-6.5l-0.3-28.5l-10.4,28.5h-6.7l0.8-41.6h6.7l-1.8,29.7l10.6-29.7h6.2l0.1,29.7l8.6-29.7h6.7
		L219,47.8z"/>
	<path class="st0" d="M243.3,6.2l-3,17.4h7.9l3-17.4h6.9l-7.3,41.6h-6.9l3.2-18.1h-7.9L236,47.8h-6.9l7.3-41.6
		C236.4,6.2,243.3,6.2,243.3,6.2z"/>
	<path class="st0" d="M269.5,47.8h-6.9l2.6-14.8l-3.7-26.8h7.1l1.2,19.3l8-19.3h7.3L272.1,33L269.5,47.8z"/>
</g>
</svg>
