<?xml version="1.0" encoding="utf-8"?>
<!-- Generator: Adobe Illustrator 22.0.1, SVG Export Plug-In . SVG Version: 6.00 Build 0)  -->
<svg version="1.1" id="Layer_1" xmlns="http://www.w3.org/2000/svg" xmlns:xlink="http://www.w3.org/1999/xlink" x="0px" y="0px"
	 viewBox="0 0 72.896 53.762" enable-background="new 0 0 72.896 53.762" xml:space="preserve">
<g>
	<path fill="#FFFFFF" d="M25.856,38.478c0,6.417-4.159,8.795-10.458,8.795h-0.119c-6.299,0-10.458-2.317-10.458-8.795V13.522
		c0-6.18,4.159-8.795,10.458-8.795h0.119c6.299,0,10.458,2.614,10.458,8.795v7.606h-6.893V14.59c0-2.912-1.426-3.803-3.624-3.803
		s-3.625,0.891-3.625,3.803v22.818c0,2.913,1.426,3.803,3.625,3.803s3.624-0.89,3.624-3.803v-7.546h6.893V38.478z"/>
	<path fill="#00A0AF" d="M54.472,46.797h-6.477l-0.297-28.523L37.299,46.797h-6.715l0.773-41.595h6.655l-1.842,29.71l10.577-29.71
		h6.18l0.119,29.71l8.616-29.71h6.655L54.472,46.797z"/>
</g>
</svg>
