<svg version="1.1" id="Layer_1" xmlns="http://www.w3.org/2000/svg" xmlns:xlink="http://www.w3.org/1999/xlink" x="0px" y="0px"
	 viewBox="0 0 288 53.762" enable-background="new 0 0 288 53.762" xml:space="preserve">
<g>
	<path fill="#323E48" d="M23.815,39.478c0,6.417-4.159,8.795-10.458,8.795h-0.119c-6.299,0-10.458-2.317-10.458-8.795V14.522
		c0-6.18,4.159-8.795,10.458-8.795h0.119c6.299,0,10.458,2.614,10.458,8.795v7.606h-6.893V15.59c0-2.912-1.426-3.803-3.624-3.803
		s-3.625,0.891-3.625,3.803v22.818c0,2.913,1.426,3.803,3.625,3.803s3.624-0.89,3.624-3.803v-7.546h6.893V39.478z"/>
	<path fill="#323E48" d="M45.913,47.797l-5.289-16.578h-3.447v16.578h-6.893V6.203H41.04c6.299,0,10.458,2.496,10.458,8.793v7.429
		c0,3.98-1.664,6.476-4.516,7.725l5.942,17.648H45.913z M37.178,25.276h3.625c2.258,0,3.803-0.831,3.803-3.803v-5.407
		c0-2.972-1.545-3.803-3.803-3.803h-3.625V25.276z"/>
	<path fill="#323E48" d="M58.088,47.797V6.203h18.243v6.06h-11.35v11.409h9.508v6.062h-9.508v12.003h11.528v6.06H58.088z"/>
	<path fill="#323E48" d="M96.636,38.528H89.03l-1.486,9.269H80.89l7.725-41.595h8.675l7.844,41.595h-7.012L96.636,38.528z
		 M95.745,32.824l-2.912-18.481l-2.912,18.481H95.745z"/>
	<path fill="#323E48" d="M125.39,12.263h-6.952v35.534h-6.893V12.263h-6.952v-6.06h20.797V12.263z"/>
	<path fill="#323E48" d="M131.197,47.797V6.203h6.893v41.595H131.197z"/>
	<path fill="#323E48" d="M159.226,47.797h-7.606l-7.843-41.595h7.012l4.813,30.84l4.813-30.84h6.655L159.226,47.797z"/>
	<path fill="#323E48" d="M171.519,47.797V6.203h18.243v6.06h-11.35v11.409h9.508v6.062h-9.508v12.003h11.528v6.06H171.519z"/>
	<path fill="#00A0AF" d="M219.014,47.797h-6.477l-0.297-28.523L201.84,47.797h-6.715l0.773-41.595h6.655l-1.842,29.71l10.577-29.71
		h6.18l0.119,29.71l8.616-29.71h6.655L219.014,47.797z"/>
	<path fill="#00A0AF" d="M243.323,6.203l-3.031,17.351h7.903l3.031-17.351h6.893l-7.309,41.595h-6.893l3.209-18.064h-7.903
		l-3.209,18.064h-6.893l7.309-41.595H243.323z"/>
	<path fill="#00A0AF" d="M269.533,47.797h-6.892l2.614-14.796L261.57,6.203h7.072l1.248,19.312l8.022-19.312h7.309l-13.073,26.798
		L269.533,47.797z"/>
</g>
</svg>
