<svg version="1.1" id="Layer_1" xmlns="http://www.w3.org/2000/svg" width="20" height="20" viewBox="0 0 20 20">
  <g fill="#FFCE00">
    <path d="M9.6969697,2.35212121 C12.2878788,2.35212121 12.5945455,2.36363636 13.6133333,2.40909091 C14.5606061,2.45090909 15.0715152,2.60969697 15.4127273,2.74242424 C15.8636364,2.9169697 16.1890909,3.12909091 16.5260606,3.46606061 C16.8672727,3.80727273 17.0751515,4.12909091 17.2533333,4.58 C17.3860606,4.92121212 17.5448485,5.43575758 17.5866667,6.37939394 C17.6321212,7.40242424 17.6436364,7.70909091 17.6436364,10.2963636 C17.6436364,12.8836364 17.6321212,13.1939394 17.5866667,14.2133333 C17.5448485,15.1606061 17.3860606,15.6715152 17.2533333,16.0127273 C17.0787879,16.4636364 16.8672727,16.7890909 16.529697,17.1260606 C16.1884848,17.4672727 15.8666667,17.6751515 15.4163636,17.8533333 C15.0751515,17.9860606 14.56,18.1448485 13.6169697,18.1866667 C12.5939394,18.2321212 12.2872727,18.2436364 9.7,18.2436364 C7.11272727,18.2436364 6.80242424,18.2321212 5.7830303,18.1866667 C4.83575758,18.1448485 4.32484848,17.9860606 3.98363636,17.8533333 C3.53272727,17.6787879 3.20727273,17.4672727 2.86969697,17.129697 C2.52848485,16.7884848 2.32060606,16.4666667 2.14242424,16.0163636 C2.00969697,15.6751515 1.85090909,15.16 1.80909091,14.2169697 C1.76363636,13.1939394 1.75212121,12.8872727 1.75212121,10.3 C1.75212121,7.71272727 1.76363636,7.40242424 1.80909091,6.3830303 C1.85090909,5.43575758 2.00969697,4.92484848 2.14242424,4.58363636 C2.3169697,4.13272727 2.52909091,3.80727273 2.86606061,3.46969697 C3.20727273,3.12848485 3.52909091,2.92060606 3.98,2.74242424 C4.32121212,2.60969697 4.83575758,2.45090909 5.77939394,2.40909091 C6.79818182,2.36363636 7.10545455,2.35212121 9.69636364,2.35212121 L9.6969697,2.35212121 Z M9.6969697,0.606060606 C7.06424242,0.606060606 6.73515152,0.617575758 5.70060606,0.663030303 C4.67030303,0.708484848 3.96181818,0.875151515 3.34848485,1.11393939 C2.70848485,1.36363636 2.16666667,1.69333333 1.62909091,2.23515152 C1.08727273,2.77333333 0.757575758,3.31454545 0.507878788,3.95090909 C0.269090909,4.56848485 0.102424242,5.27272727 0.056969697,6.3030303 C0.0115151515,7.34121212 -1.77635684e-15,7.67030303 -1.77635684e-15,10.3030303 C-1.77635684e-15,12.9357576 0.0115151515,13.2648485 0.056969697,14.2993939 C0.102424242,15.329697 0.269090909,16.0381818 0.507878788,16.6515152 C0.758181818,17.2915152 1.08727273,17.8333333 1.62909091,18.3709091 C2.16666667,18.9084848 2.70848485,19.2424242 3.34484848,19.4884848 C3.96242424,19.7272727 4.66666667,19.8939394 5.6969697,19.9393939 C6.73090909,19.9848485 7.06060606,19.9963636 9.69333333,19.9963636 C12.3260606,19.9963636 12.6557576,19.9848485 13.689697,19.9393939 C14.72,19.8939394 15.4284848,19.7272727 16.0418182,19.4884848 C16.6781818,19.2424242 17.22,18.9090909 17.7575758,18.3709091 C18.2951515,17.8327273 18.6290909,17.2915152 18.8751515,16.6551515 C19.1139394,16.0375758 19.2806061,15.3333333 19.3260606,14.3030303 C19.3715152,13.2690909 19.3830303,12.9393939 19.3830303,10.3066667 C19.3830303,7.67393939 19.3715152,7.34484848 19.3260606,6.31030303 C19.2806061,5.28 19.1139394,4.57151515 18.8751515,3.95818182 C18.6363636,3.31393939 18.3066667,2.77272727 17.7654545,2.23454545 C17.2278788,1.6969697 16.6860606,1.3630303 16.049697,1.1169697 C15.4321212,0.878181818 14.7278788,0.711515152 13.6975758,0.666060606 C12.66,0.616969697 12.330303,0.605454545 9.69757576,0.605454545 L9.6969697,0.606060606 Z"/>
    <path d="M9.6969697 5.32181818C6.94727273 5.32181818 4.71575758 7.55272727 4.71575758 10.3030303 4.71575758 13.0533333 6.94666667 15.2842424 9.6969697 15.2842424 12.4472727 15.2842424 14.6781818 13.0533333 14.6781818 10.3030303 14.6781818 7.55333333 12.4472727 5.32181818 9.6969697 5.32181818zM9.6969697 13.5339394C7.91272727 13.5339394 6.46606061 12.0872727 6.46606061 10.3030303 6.46606061 8.51878788 7.91272727 7.07212121 9.6969697 7.07212121 11.4812121 7.07212121 12.9278788 8.51878788 12.9278788 10.3030303 12.9278788 12.0872727 11.4812121 13.5339394 9.6969697 13.5339394zM16.0375758 5.12484848C16.0375758 5.76727273 15.5169697 6.28787879 14.8745455 6.28787879 14.2321212 6.28787879 13.7115152 5.76727273 13.7115152 5.12484848 13.7115152 4.48242424 14.2321212 3.96181818 14.8745455 3.96181818 15.5169697 3.96181818 16.0375758 4.48242424 16.0375758 5.12484848z"/>
  </g>
</svg>
