<svg version="1.1" id="Layer_1" xmlns="http://www.w3.org/2000/svg" width="22" height="20" viewBox="0 0 22 20">
  <g fill="#FFCE00">
    <path d="M7.69230769,6.15384615 L11.95,6.15384615 L11.95,8.33615385 L12.0107692,8.33615385 C12.6030769,7.27384615 14.0530769,6.15384615 16.2138462,6.15384615 C20.7076923,6.15384615 21.5384615,8.95153846 21.5384615,12.59 L21.5384615,20 L17.1007692,20 L17.1007692,13.4307692 C17.1007692,11.8638462 17.0684615,9.84846154 14.7923077,9.84846154 C12.4807692,9.84846154 12.1284615,11.5546154 12.1284615,13.3169231 L12.1284615,20 L7.69230769,20 L7.69230769,6.15384615 Z"/>
    <polygon points="0 6.154 4.615 6.154 4.615 20 0 20"/>
    <path d="M4.61538462,2.30769231 C4.61538462,3.58230769 3.58230769,4.61538462 2.30769231,4.61538462 C1.03307692,4.61538462 0,3.58230769 0,2.30769231 C0,1.03307692 1.03307692,0 2.30769231,0 C3.58230769,0 4.61538462,1.03307692 4.61538462,2.30769231 Z"/>
  </g>
</svg>
