<svg version="1.1" id="Layer_1" xmlns="http://www.w3.org/2000/svg" width="25" height="20" viewBox="0 0 25 20">
  <path fill="#FFCE00" d="M24.6190531,42.3652936 C23.7152417,42.7691243 22.7391254,43.0383447 21.7199338,43.1583401 C22.7629707,42.5329795 23.5614015,41.5430176 23.9406177,40.3653706 C22.9645014,40.9422715 21.8830045,41.3653321 20.7338179,41.5914773 C19.8107765,40.6107457 18.4985193,40 17.0462675,40 C14.2579132,40 11.9980001,42.2599131 11.9980001,45.0482674 C11.9980001,45.4420984 12.0410753,45.826699 12.1279951,46.1974539 C7.93123341,45.9859236 4.20983808,43.9760009 1.71993385,40.9191954 C1.28687358,41.6645514 1.0376524,42.5345179 1.0376524,43.4575593 C1.0376524,45.207492 1.92684897,46.7551248 3.28295066,47.6597054 C2.45605938,47.6358602 1.67762778,47.4050998 0.994577132,47.0297296 C0.994577132,47.0489597 0.994577132,47.0728049 0.994577132,47.0920349 C0.994577132,49.5388639 2.73527941,51.5826314 5.04749817,52.0433829 C4.62443752,52.1587631 4.17753163,52.2210684 3.71601092,52.2210684 C3.38910042,52.2210684 3.07680474,52.1872236 2.76450906,52.1295335 C3.40909965,54.1340718 5.27441252,55.595554 7.48048152,55.6393985 C5.74977885,56.994731 3.57678551,57.8031614 1.20687666,57.8031614 C0.79843083,57.8031614 0.399215415,57.7793162 0,57.7308565 C2.24068305,59.1684935 4.89365794,60 7.74508673,60 C17.033191,60 22.1145341,52.3033729 22.1145341,45.6305527 C22.1145341,45.4097919 22.1099188,45.1928772 22.0999192,44.9767317 C23.085266,44.2698358 23.9413869,43.3806392 24.6190531,42.3660628 L24.6190531,42.3652936 Z" transform="translate(0 -40)"/>
</svg>
