<svg id="Layer_1" data-name="Layer 1" xmlns="http://www.w3.org/2000/svg" viewBox="0 0 36 36"><defs><style>.cls-1{fill:#fff;}</style></defs><title>linkedin</title><path class="cls-1" d="M139.4,0H108.72a2.63,2.63,0,0,0-2.66,2.6V33.4a2.63,2.63,0,0,0,2.66,2.6H139.4a2.63,2.63,0,0,0,2.66-2.6V2.6A2.63,2.63,0,0,0,139.4,0ZM116.75,30.68H111.4V13.5h5.34V30.68Zm-2.67-19.53a3.1,3.1,0,1,1,3.09-3.1A3.1,3.1,0,0,1,114.08,11.15Zm22.67,19.53h-5.34V22.32c0-2,0-4.56-2.78-4.56s-3.2,2.17-3.2,4.41v8.5H120.1V13.5h5.12v2.35h0.07a5.61,5.61,0,0,1,5.05-2.77c5.41,0,6.4,3.56,6.4,8.18v9.42Z" transform="translate(-106.07)"/></svg>