<svg id="primary_Logo" data-name="primary Logo" xmlns="http://www.w3.org/2000/svg" viewBox="0 0 104.65 88.58"><defs><style>.cls-1{fill:#fff;}</style></defs><title>medium</title><path class="cls-1" d="M885,820.48l-0.06,0,0,0-31.57-15.79a3.32,3.32,0,0,0-.66-0.24,3.5,3.5,0,0,0-.87-0.12,3.61,3.61,0,0,0-3.06,1.67l-18.18,29.54,22.81,37.06L885.11,821A0.38,0.38,0,0,0,885,820.48Z" transform="translate(-780.68 -804.28)"/><polygon class="cls-1" points="39.88 24.47 39.88 58.09 69.77 73.04 39.88 24.47"/><path class="cls-1" d="M854.94,879.56l24.6,12.3c3.2,1.6,5.8.48,5.8-2.5V830.17Z" transform="translate(-780.68 -804.28)"/><path class="cls-1" d="M815.38,820.53l-30.83-15.42a3.53,3.53,0,0,0-1.57-.41c-1.35,0-2.3,1-2.3,2.8v66.57a5.76,5.76,0,0,0,2.9,4.69l27.16,13.58a4.41,4.41,0,0,0,2,.51c1.69,0,2.87-1.31,2.87-3.5V820.83A0.34,0.34,0,0,0,815.38,820.53Z" transform="translate(-780.68 -804.28)"/></svg>